<svg xmlns="http://www.w3.org/2000/svg" xmlns:xlink="http://www.w3.org/1999/xlink" width="512" height="512" viewBox="0 0 512 512"><defs><linearGradient id="a" x1="0.5" y1="0.188" x2="0.5" y2="0.827" gradientUnits="objectBoundingBox"><stop offset="0" stop-color="#9ac9d1"/><stop offset="1" stop-color="#3a93a2"/></linearGradient><clipPath id="c"><rect width="512" height="512"/></clipPath></defs><g id="b" clip-path="url(#c)"><rect width="512" height="512" fill="#fff"/><rect width="512" height="512" fill="url(#a)"/><path d="M1,1V511H511V1H1M0,0H512V512H0Z" fill="#fff"/><path d="M233,283a49.844,49.844,0,0,1-35.355-14.645l-233-233a50,50,0,0,1,0-70.711,50,50,0,0,1,70.711,0l233,233A50,50,0,0,1,233,283Z" transform="translate(144.5 146.5)" fill="#fff"/><path d="M233,283a49.844,49.844,0,0,1-35.355-14.645l-233-233a50,50,0,0,1,0-70.711,50,50,0,0,1,70.711,0l233,233A50,50,0,0,1,233,283Z" transform="translate(144.5 379.5) rotate(-90)" fill="#fff"/></g></svg>